# xmcd
#
# Track frame offsets:
# 150
# 21920
# 40870
# 60382
# 81290
# 103385
# 126495
# 153412
# 173475
# 195637
# 210895
# 232830
#
# Disc length: 3379 seconds
#
#
# Revision: 12
# Processed by: cddbd v1.4PL0 Copyright (c) Steve Scherf et al.
# Submitted via: FreeRIP 2.53 
#
DISCID=950d310c
DTITLE=ÀÌ½ÂÈ¯ - Egg -- Sunny-side Up
DYEAR=2001
DGENRE=Pop
TTITLE0=Àß¸ø
TTITLE1=A Song for You
TTITLE2=Christmas Wishes
TTITLE3=±'Ù¸²
TTITLE4=»ç¶ûÇÏ³ª¿ä!?
TTITLE5=»ïÃÌ Àå°¡°¡¿ä
TTITLE6=Ø¹õÕ
TTITLE7=ÀÌº°... ±× Âû³ªÀÇ È¥µ·
TTITLE8=Çª¸¥ ¾ÆÄ§ »ó³ä
TTITLE9=³ª Àâ¾ÆºÁ¶ó~
TTITLE10=Ãã¹Ù¶÷
TTITLE11=¾ö¸¶
EXTD=YEAR: 2001 ID3G: 13
EXTT0=
EXTT1=
EXTT2=
EXTT3=
EXTT4=
EXTT5=
EXTT6=
EXTT7=
EXTT8=
EXTT9=
EXTT10=
EXTT11=
PLAYORDER=
